<?xml version="1.0" encoding="utf-8"?>
<svg version="1.1" xmlns:xlink="http://www.w3.org/1999/xlink" width="10px" height="6px" xmlns="http://www.w3.org/2000/svg">
  <g transform="matrix(1 0 0 1 -190 -31 )">
    <path d="M 9.814453125 0.18472222222222  C 9.93815104166667 0.307870370370367  10 0.453703703703699  10 0.622222222222224  C 10 0.790740740740741  9.93815104166667 0.93657407407407  9.814453125 1.05972222222222  L 5.439453125 5.41527777777779  C 5.31575520833333 5.53842592592593  5.16927083333333 5.60000000000001  5 5.60000000000001  C 4.83072916666667 5.60000000000001  4.68424479166667 5.53842592592593  4.560546875 5.41527777777779  L 0.185546875 1.05972222222222  C 0.0618489583333286 0.93657407407407  0 0.790740740740741  0 0.622222222222224  C 0 0.453703703703699  0.0618489583333286 0.307870370370367  0.185546875 0.18472222222222  C 0.309244791666671 0.0615740740740733  0.455729166666671 0  0.625 0  L 9.375 0  C 9.54427083333333 0  9.69075520833333 0.0615740740740733  9.814453125 0.18472222222222  Z " fill-rule="nonzero" fill="#cccccc" stroke="none" transform="matrix(1 0 0 1 190 31 )" />
  </g>
</svg>